<svg width="20" height="20" viewBox="0 0 20 20" fill="none" xmlns="http://www.w3.org/2000/svg">
<path d="M4.27305 15.8454H5.2513L12.3211 8.76387L11.3428 7.78562L4.27305 14.8671V15.8454ZM16.1308 7.56733L12.5303 3.99667L13.6263 2.88887C13.9771 2.53803 14.4048 2.35868 14.9094 2.35083C15.4139 2.34299 15.8573 2.52233 16.2396 2.88887L17.2413 3.87892C17.6236 4.24546 17.8099 4.67601 17.8002 5.17058C17.7906 5.66515 17.6103 6.08786 17.2595 6.43871L16.1308 7.56733ZM3.52216 17.6887C3.21539 17.6887 2.95467 17.5814 2.73999 17.3667C2.52531 17.152 2.41797 16.8913 2.41797 16.5845V14.5483C2.41797 14.398 2.44666 14.255 2.50403 14.1194C2.56139 13.9838 2.64352 13.8626 2.75041 13.7557L11.322 5.18417L14.9343 8.78471L6.36272 17.3563C6.25584 17.4632 6.13266 17.5453 5.99316 17.6026C5.85367 17.66 5.70874 17.6887 5.55836 17.6887H3.52216ZM11.8437 8.27475L11.3428 7.78562L12.3211 8.76387L11.8437 8.27475Z" fill="white"/>
</svg>
