<svg width="20" height="20" viewBox="0 0 20 20" fill="none" xmlns="http://www.w3.org/2000/svg">
    <path
        d="M5.70366 17.9008C5.08831 17.9008 4.56641 17.6865 4.13797 17.2581C3.70952 16.8296 3.4953 16.3078 3.4953 15.6924V5.12992C3.18854 5.12992 2.92781 5.02258 2.71313 4.8079C2.49845 4.59322 2.39111 4.3325 2.39111 4.02574C2.39111 3.71897 2.49845 3.45825 2.71313 3.24357C2.92781 3.02889 3.18854 2.92155 3.4953 2.92155H7.22901C7.22901 2.61479 7.33635 2.35406 7.55103 2.13938C7.76571 1.92472 8.02643 1.81738 8.3332 1.81738H11.643C11.9498 1.81738 12.2105 1.92472 12.4251 2.13938C12.6398 2.35406 12.7472 2.61479 12.7472 2.92155H16.5044C16.8112 2.92155 17.0719 3.02889 17.2866 3.24357C17.5013 3.45825 17.6086 3.71897 17.6086 4.02574C17.6086 4.3325 17.5013 4.59322 17.2866 4.8079C17.0719 5.02258 16.8112 5.12992 16.5044 5.12992V15.6924C16.5044 16.3078 16.2902 16.8296 15.8618 17.2581C15.4333 17.6865 14.9114 17.9008 14.2961 17.9008H5.70366ZM14.2961 5.12992H5.70366V15.6924H14.2961V5.12992ZM7.2879 14.1553H9.2254V6.65528H7.2879V14.1553ZM10.7743 14.1553H12.7118V6.65528H10.7743V14.1553Z"
        fill="white" />
</svg>
    