<svg class="eye" width="100%" height="100%" viewBox="0 0 20 20" fill="none"
    xmlns="http://www.w3.org/2000/svg">
    <path
        d="M9.99998 13.3338C11.0416 13.3338 11.9271 12.9692 12.6562 12.2401C13.3854 11.5109 13.75 10.6255 13.75 9.58381C13.75 8.54215 13.3854 7.65673 12.6562 6.92756C11.9271 6.1984 11.0416 5.83381 9.99998 5.83381C8.95831 5.83381 8.07289 6.1984 7.34373 6.92756C6.61456 7.65673 6.24998 8.54215 6.24998 9.58381C6.24998 10.6255 6.61456 11.5109 7.34373 12.2401C8.07289 12.9692 8.95831 13.3338 9.99998 13.3338ZM10.0021 11.5865C9.44632 11.5865 8.97326 11.392 8.58287 11.003C8.19247 10.614 7.99727 10.1416 7.99727 9.5859C7.99727 9.03016 8.19178 8.5571 8.58079 8.16671C8.9698 7.77631 9.44217 7.5811 9.99789 7.5811C10.5536 7.5811 11.0267 7.77561 11.4171 8.16463C11.8075 8.55364 12.0027 9.02601 12.0027 9.58173C12.0027 10.1375 11.8082 10.6105 11.4192 11.0009C11.0302 11.3913 10.5578 11.5865 10.0021 11.5865ZM9.99998 16.1989C8.01446 16.1989 6.19758 15.6669 4.54933 14.6029C2.90108 13.5388 1.64761 12.1152 0.788914 10.332C0.733108 10.241 0.695907 10.1272 0.67731 9.99063C0.658713 9.85408 0.649414 9.71848 0.649414 9.58381C0.649414 9.44915 0.65872 9.31354 0.677331 9.177C0.695914 9.04045 0.733108 8.92665 0.788914 8.83562C1.64761 7.0524 2.90108 5.62878 4.54933 4.56477C6.19758 3.50076 8.01446 2.96875 9.99998 2.96875C11.9855 2.96875 13.8024 3.50076 15.4506 4.56477C17.0989 5.62878 18.3523 7.0524 19.211 8.83562C19.2668 8.92665 19.304 9.04045 19.3226 9.177C19.3412 9.31354 19.3505 9.44915 19.3505 9.58381C19.3505 9.71848 19.3412 9.85408 19.3226 9.99063C19.304 10.1272 19.2668 10.241 19.211 10.332C18.3523 12.1152 17.0989 13.5388 15.4506 14.6029C13.8024 15.6669 11.9855 16.1989 9.99998 16.1989ZM10.001 14.1671C11.5619 14.1671 12.9947 13.752 14.2994 12.9217C15.604 12.0914 16.6035 10.9787 17.298 9.58381C16.6035 8.18888 15.6036 7.07626 14.2983 6.24596C12.9929 5.41564 11.5598 5.00048 9.99894 5.00048C8.43803 5.00048 7.00525 5.41564 5.7006 6.24596C4.39596 7.07626 3.39642 8.18888 2.70198 9.58381C3.39642 10.9787 4.39632 12.0914 5.70166 12.9217C7.00701 13.752 8.44013 14.1671 10.001 14.1671Z"
        fill="white" />
</svg>