<svg width="75" height="20" viewBox="0 0 75 20" fill="none" xmlns="http://www.w3.org/2000/svg">
<path d="M37.8109 13.958H27.649C27.9016 16.3943 29.1646 17.934 31.4962 17.934C33.0894 17.934 34.3912 17.1739 35.3239 15.985L37.2669 17.0375C36.0234 18.889 33.9638 19.961 31.5156 19.961C27.5907 19.961 24.9482 17.2129 24.9482 13.081C24.9482 8.8906 27.513 6.10352 31.4184 6.10352C35.285 6.10352 37.8498 8.81264 37.8498 12.8666C37.8498 13.1979 37.8498 13.6657 37.8109 13.958ZM27.649 12.2039H35.2462C35.013 9.65072 33.614 8.13049 31.4184 8.13049C29.2228 8.13049 27.8627 9.6897 27.649 12.2039Z" fill="#1D243C"/>
<path d="M39.9287 13.042C39.9287 8.8906 42.7266 6.10352 46.9235 6.10352C48.6722 6.10352 50.1489 6.64924 51.373 7.60426L49.9157 9.35837C49.0608 8.65672 48.1476 8.3059 46.943 8.3059C44.3199 8.3059 42.5712 10.2159 42.5712 13.042C42.5712 15.8681 44.3199 17.7781 46.9624 17.7781C48.2836 17.7781 49.4494 17.3493 50.3043 16.4528L51.781 18.1874C50.5375 19.3958 48.7888 20 46.8458 20C42.7072 19.9805 39.9287 17.1934 39.9287 13.042Z" fill="#1D243C"/>
<path d="M62.196 17.3299V19.3764C61.244 19.8052 60.117 19.9806 58.8929 19.9806C56.6002 19.9806 55.0458 18.4019 55.0458 16.0436V8.46194H52.7725V6.35701H55.0458V2.45898H57.5911V6.35701H61.9823V8.46194H57.5911V15.5174C57.5911 16.8622 58.446 17.7782 59.6896 17.7782C60.5445 17.7782 61.38 17.6418 62.196 17.3299Z" fill="#1D243C"/>
<path d="M75.0003 11.3074V19.7271H72.5327L72.4744 17.3688C71.5418 19.0255 69.8125 19.9805 67.9278 19.9805C65.2659 19.9805 63.4395 18.3823 63.4395 15.9655C63.4395 13.4708 65.6545 11.8141 69.0159 11.8141C70.0845 11.8141 71.3086 11.9311 72.455 12.1844V11.5802C72.455 9.45582 71.0755 8.13049 68.841 8.13049C67.3837 8.13049 66.3151 8.57876 65.4213 9.43633L64.2944 7.9161C65.6156 6.74669 67.2477 6.10352 69.4628 6.10352C72.7853 6.10352 75.0003 8.18896 75.0003 11.3074ZM72.455 13.9385C71.4058 13.7047 70.3177 13.5877 69.3267 13.5877C67.3837 13.5877 66.1014 14.5232 66.1014 15.8876C66.1014 17.2324 67.034 18.1094 68.6467 18.1094C70.512 18.1289 72.4356 16.5892 72.455 13.9385Z" fill="#1D243C"/>
<path d="M21.4445 0.000347277L19.0352 0.00683594L19.0879 19.7698L21.4972 19.7633L21.4445 0.000347277Z" fill="#1D243C"/>
<path d="M7.55044 0.000382831L5.14111 0.00683594L5.19416 19.7698L7.60348 19.7634L7.55044 0.000382831Z" fill="#1D243C"/>
<path d="M19.6243 11.4824H0V13.8994H19.6243V11.4824Z" fill="#1D243C"/>
</svg>
