<svg width="16" height="16" viewBox="0 0 16 16" fill="none" xmlns="http://www.w3.org/2000/svg">
    <path
        d="M11.8332 13.5C11.1332 13.5 10.5415 13.2583 10.0582 12.775C9.57484 12.2917 9.33317 11.7 9.33317 11C9.33317 10.3 9.57484 9.70833 10.0582 9.225C10.5415 8.74167 11.1332 8.5 11.8332 8.5C12.5332 8.5 13.1248 8.74167 13.6082 9.225C14.0915 9.70833 14.3332 10.3 14.3332 11C14.3332 11.7 14.0915 12.2917 13.6082 12.775C13.1248 13.2583 12.5332 13.5 11.8332 13.5ZM11.8332 12.1667C12.1554 12.1667 12.4304 12.0528 12.6582 11.825C12.8859 11.5972 12.9998 11.3222 12.9998 11C12.9998 10.6778 12.8859 10.4028 12.6582 10.175C12.4304 9.94722 12.1554 9.83333 11.8332 9.83333C11.5109 9.83333 11.2359 9.94722 11.0082 10.175C10.7804 10.4028 10.6665 10.6778 10.6665 11C10.6665 11.3222 10.7804 11.5972 11.0082 11.825C11.2359 12.0528 11.5109 12.1667 11.8332 12.1667ZM3.33317 11.6667C3.14428 11.6667 2.98595 11.6028 2.85817 11.475C2.73039 11.3472 2.6665 11.1889 2.6665 11C2.6665 10.8111 2.73039 10.6528 2.85817 10.525C2.98595 10.3972 3.14428 10.3333 3.33317 10.3333H7.33317C7.52206 10.3333 7.68039 10.3972 7.80817 10.525C7.93595 10.6528 7.99984 10.8111 7.99984 11C7.99984 11.1889 7.93595 11.3472 7.80817 11.475C7.68039 11.6028 7.52206 11.6667 7.33317 11.6667H3.33317ZM4.1665 7.5C3.4665 7.5 2.87484 7.25833 2.3915 6.775C1.90817 6.29167 1.6665 5.7 1.6665 5C1.6665 4.3 1.90817 3.70833 2.3915 3.225C2.87484 2.74167 3.4665 2.5 4.1665 2.5C4.8665 2.5 5.45817 2.74167 5.9415 3.225C6.42484 3.70833 6.6665 4.3 6.6665 5C6.6665 5.7 6.42484 6.29167 5.9415 6.775C5.45817 7.25833 4.8665 7.5 4.1665 7.5ZM4.1665 6.16667C4.48873 6.16667 4.76373 6.05278 4.9915 5.825C5.21928 5.59722 5.33317 5.32222 5.33317 5C5.33317 4.67778 5.21928 4.40278 4.9915 4.175C4.76373 3.94722 4.48873 3.83333 4.1665 3.83333C3.84428 3.83333 3.56928 3.94722 3.3415 4.175C3.11373 4.40278 2.99984 4.67778 2.99984 5C2.99984 5.32222 3.11373 5.59722 3.3415 5.825C3.56928 6.05278 3.84428 6.16667 4.1665 6.16667ZM8.6665 5.66667C8.47761 5.66667 8.31928 5.60278 8.1915 5.475C8.06373 5.34722 7.99984 5.18889 7.99984 5C7.99984 4.81111 8.06373 4.65278 8.1915 4.525C8.31928 4.39722 8.47761 4.33333 8.6665 4.33333H12.6665C12.8554 4.33333 13.0137 4.39722 13.1415 4.525C13.2693 4.65278 13.3332 4.81111 13.3332 5C13.3332 5.18889 13.2693 5.34722 13.1415 5.475C13.0137 5.60278 12.8554 5.66667 12.6665 5.66667H8.6665Z"
        fill="white" />
</svg>
    